<?xml version="1.0" encoding="UTF-8"?> <svg xmlns="http://www.w3.org/2000/svg" width="807" height="807" viewBox="0 0 807 807" fill="none"> <circle cx="403.5" cy="403.5" r="403.5" fill="#0F1015"></circle> <path d="M647.839 545.745H582.548V529.431H631.516C633.681 529.431 635.757 528.572 637.287 527.042C638.817 525.513 639.677 523.438 639.677 521.275V488.647C639.68 427.323 615.854 368.395 573.22 324.291C530.587 280.188 472.482 254.359 411.161 252.251V243.941H443.806C445.971 243.941 448.047 243.082 449.578 241.552C451.108 240.023 451.968 237.948 451.968 235.784V203.157C451.968 200.994 451.108 198.919 449.578 197.389C448.047 195.859 445.971 195 443.806 195H362.194C360.029 195 357.953 195.859 356.422 197.389C354.892 198.919 354.032 200.994 354.032 203.157V235.784C354.032 237.948 354.892 240.023 356.422 241.552C357.953 243.082 360.029 243.941 362.194 243.941H394.839V252.251C333.518 254.359 275.413 280.188 232.78 324.291C190.147 368.395 166.319 427.323 166.323 488.647V521.275C166.323 523.438 167.182 525.513 168.713 527.042C170.243 528.572 172.319 529.431 174.484 529.431H223.452V545.745H158.161C155.997 545.745 153.921 546.605 152.39 548.134C150.86 549.663 150 551.738 150 553.902V602.843C150 605.007 150.86 607.082 152.39 608.611C153.921 610.141 155.997 611 158.161 611H647.839C650.003 611 652.08 610.141 653.61 608.611C655.14 607.082 656 605.007 656 602.843V553.902C656 551.738 655.14 549.663 653.61 548.134C652.08 546.605 650.003 545.745 647.839 545.745ZM370.355 227.627V211.314H435.645V227.627H370.355ZM182.645 513.118V488.647C182.647 445.088 195.571 402.509 219.784 366.292C243.998 330.075 278.413 301.847 318.677 285.177C358.941 268.508 403.247 264.146 445.992 272.642C488.736 281.14 528.001 302.113 558.819 332.912C579.344 353.318 595.616 377.588 606.693 404.319C617.77 431.051 623.433 459.714 623.355 488.647V513.118H182.645ZM566.226 529.431V545.745H239.774V529.431H566.226ZM639.677 594.686H166.323V562.059H639.677V594.686Z" fill="white"></path> </svg> 