<?xml version="1.0" encoding="UTF-8"?> <svg xmlns="http://www.w3.org/2000/svg" width="807" height="807" viewBox="0 0 807 807" fill="none"> <circle cx="403.5" cy="403.5" r="403.5" fill="#0F1015"></circle> <path d="M597.621 251.666L405.189 149.128C402.334 147.605 398.913 147.626 396.079 149.182L208.972 251.719C205.903 253.403 204 256.622 204 260.123V394.064C204.112 504.166 269.345 603.774 370.226 647.885L396.197 659.203C398.624 660.261 401.388 660.266 403.82 659.213L433.085 646.575C535.836 603.422 602.684 502.851 602.694 391.407V260.123C602.694 256.584 600.743 253.329 597.621 251.666V251.666ZM583.534 391.407C583.513 495.169 521.257 588.795 425.584 628.949L425.52 628.981L400.035 639.983L377.892 630.323C283.988 589.265 223.262 496.554 223.155 394.064V265.796L400.746 168.465L583.534 265.865V391.407Z" fill="white"></path> <path d="M330.066 387.851C326.629 383.826 320.582 383.35 316.557 386.788C312.531 390.22 312.055 396.271 315.493 400.292L366.099 459.553C369.477 463.509 375.396 464.049 379.426 460.767L497.286 364.879C501.392 361.543 502.012 355.508 498.671 351.402C495.335 347.301 489.299 346.676 485.193 350.017L374.594 439.992L330.066 387.851Z" fill="white"></path> </svg> 