<?xml version="1.0" encoding="UTF-8"?> <svg xmlns="http://www.w3.org/2000/svg" width="807" height="807" viewBox="0 0 807 807" fill="none"> <circle cx="403.5" cy="403.5" r="403" fill="#0F1015" stroke="black"></circle> <path d="M410.346 366.845C409.273 366.613 408.172 366.571 407.085 366.734C396.193 365.466 387.975 356.252 387.957 345.292C387.957 340.039 383.697 335.781 378.444 335.781C373.19 335.781 368.931 340.039 368.931 345.292C368.959 363.594 381.203 379.626 398.854 384.469V393.98C398.854 399.233 403.114 403.491 408.367 403.491C413.621 403.491 417.88 399.233 417.88 393.98V385.045C438.254 380.782 452.101 361.811 449.959 341.112C447.813 320.414 430.371 304.684 409.556 304.68C397.628 304.68 387.957 295.011 387.957 283.085C387.957 271.159 397.628 261.49 409.556 261.49C421.485 261.49 431.156 271.159 431.156 283.085C431.156 288.337 435.415 292.596 440.669 292.596C445.923 292.596 450.182 288.337 450.182 283.085C450.154 263.867 436.688 247.293 417.88 243.327V234.67C417.88 229.418 413.621 225.159 408.367 225.159C403.114 225.159 398.854 229.418 398.854 234.67V243.907C379.224 249.267 366.59 268.321 369.293 288.486C371.996 308.65 389.206 323.702 409.556 323.697C421.327 323.697 430.928 333.12 431.142 344.883C431.36 356.647 422.107 366.418 410.346 366.845V366.845Z" fill="white"></path> <path d="M271.607 314.92C271.607 391.092 333.368 452.839 409.557 452.839C485.745 452.839 547.506 391.092 547.506 314.92C547.506 238.748 485.745 177 409.557 177C333.405 177.084 271.696 238.785 271.607 314.92ZM409.557 196.022C475.238 196.022 528.48 249.252 528.48 314.92C528.48 380.587 475.238 433.817 409.557 433.817C343.875 433.817 290.634 380.587 290.634 314.92C290.708 249.285 343.908 196.096 409.557 196.022Z" fill="white"></path> <path d="M594.402 476.287L519.881 511.489C509.592 492.356 489.855 480.179 468.135 479.566L399.342 477.676C388.449 477.365 377.761 474.606 368.076 469.604L361.076 465.977C325.234 447.299 282.514 447.345 246.709 466.098L247.146 450.243C247.29 444.991 243.151 440.616 237.898 440.472L162.462 438.396C157.208 438.252 152.837 442.39 152.693 447.643L148.136 613.148C147.992 618.4 152.131 622.775 157.385 622.919L232.821 624.995H233.081C238.237 624.995 242.455 620.894 242.594 615.744L242.812 607.826L262.41 597.335C270.102 593.197 279.095 592.212 287.498 594.59L404.525 627.428C404.73 627.489 404.934 627.535 405.143 627.582C413.602 629.351 422.223 630.238 430.863 630.233C449.165 630.243 467.252 626.3 483.886 618.665C484.295 618.479 484.69 618.261 485.066 618.015L654.746 508.285C658.973 505.549 660.339 500 657.863 495.616C645.265 473.269 617.325 464.756 594.402 476.287V476.287ZM167.418 604.166L171.45 457.674L227.864 459.225L223.832 605.722L167.418 604.166ZM475.316 601.677C454.65 611.002 431.569 613.575 409.356 609.038L292.644 576.283C279.508 572.573 265.448 574.11 253.431 580.57L243.416 585.934L246.096 488.534C277.831 467.431 318.531 465.262 352.329 482.868L359.329 486.495C371.564 492.811 385.058 496.294 398.821 496.693L467.619 498.583C486.943 499.141 503.354 512.896 507.274 531.826L404.8 528.997C399.546 528.853 395.175 532.996 395.026 538.244C394.882 543.496 399.026 547.871 404.275 548.015L517.363 551.126H517.628C522.78 551.122 526.993 547.021 527.132 541.875C527.248 537.742 526.942 533.604 526.212 529.536L602.647 493.428C602.721 493.396 602.795 493.359 602.87 493.322C613.711 487.837 626.82 489.671 635.738 497.924L475.316 601.677Z" fill="white"></path> </svg> 