<?xml version="1.0" encoding="UTF-8"?> <svg xmlns="http://www.w3.org/2000/svg" width="807" height="807" viewBox="0 0 807 807" fill="none"> <circle cx="403.5" cy="403.5" r="403.5" fill="#0F1015"></circle> <path d="M187.592 441.519C182.71 443.809 180.557 449.575 182.732 454.503L205.028 502.365C206.123 504.748 208.122 506.604 210.579 507.519C211.656 507.91 212.798 508.112 213.946 508.112C215.383 508.124 216.801 507.817 218.108 507.224L386.562 428.542L371.304 588.076C371.01 591.216 372.22 594.303 374.569 596.401C381.954 602.514 391.158 605.996 400.734 606.309C403.375 606.306 406 605.974 408.56 605.323C422.236 601.754 432.839 589.568 440.072 568.756L506.364 372.46L637.656 311.217C676.302 293.185 696.218 256.621 682.843 228.082C675.253 213.165 660.715 203.018 644.098 201.029C625.635 198.242 606.765 201.147 589.995 209.358L438.484 280.403L275.583 216.687C255.069 208.961 238.821 209.159 227.426 217.385C217.865 225.23 212.426 237.022 212.658 249.388C212.758 252.525 214.337 255.426 216.919 257.22L326.611 332.625L263.791 362.353L158.454 335.595C154.137 334.534 149.644 336.479 147.456 340.352L121.201 387.615C119.839 390.12 119.624 393.092 120.614 395.767C121.598 398.445 123.689 400.565 126.355 401.589L204.339 433.796L187.592 441.519ZM232.968 244.435C233.552 240.246 235.671 236.432 238.917 233.733C244.568 229.668 254.873 230.263 268.645 235.414L413.715 291.996L347.519 322.913L232.968 244.435ZM143.791 387.519L161.032 356.901L262.401 382.067C264.586 382.619 266.891 382.411 268.946 381.477L598.42 227.588C611.519 221.128 626.271 218.776 640.731 220.849C650.872 221.783 659.905 227.635 664.911 236.504C673.227 254.343 656.88 280.403 629.231 293.284L515.08 346.797L522.019 326.279C523.772 321.001 520.908 315.298 515.63 313.547C510.345 311.797 504.645 314.661 502.895 319.94L421.342 562.608C416.486 576.386 410.441 584.613 403.704 586.391C399.53 587.194 395.211 586.375 391.614 584.116L411.434 376.022C411.952 370.551 407.94 365.695 402.463 365.177C396.992 364.652 392.136 368.671 391.614 374.142L388.545 405.948L218.502 485.22L204.538 455.493L232.475 442.416C236.071 440.83 238.389 437.274 238.389 433.349C238.389 429.42 236.071 425.864 232.475 424.282L143.791 387.519Z" fill="white"></path> </svg> 